<svg width="39" height="39" viewBox="0 0 39 39" fill="none" xmlns="http://www.w3.org/2000/svg">
<path d="M13.796 23.096C15.044 23.096 15.812 22.32 15.812 21.264V21.248C15.812 20.208 15.068 19.808 14.308 19.68L15.404 18.632C15.628 18.416 15.772 18.248 15.772 17.944C15.772 17.608 15.508 17.4 15.148 17.4H12.42C12.132 17.4 11.892 17.64 11.892 17.928C11.892 18.216 12.132 18.456 12.42 18.456H14.14L13.052 19.552C12.86 19.744 12.788 19.888 12.788 20.056C12.788 20.344 13.028 20.584 13.316 20.584H13.508C14.196 20.584 14.604 20.84 14.604 21.296V21.312C14.604 21.728 14.276 21.992 13.812 21.992C13.372 21.992 13.036 21.848 12.716 21.576C12.62 21.496 12.5 21.424 12.324 21.424C12.004 21.424 11.732 21.696 11.732 22.016C11.732 22.192 11.828 22.36 11.94 22.456C12.396 22.848 12.996 23.096 13.796 23.096ZM18.9887 23.096C20.2047 23.096 21.1247 22.304 21.1247 21.16V21.144C21.1247 19.976 20.2687 19.36 19.1567 19.36C18.6047 19.36 18.2767 19.536 17.9967 19.72C18.0767 18.984 18.4287 18.424 19.1247 18.424C19.4607 18.424 19.6927 18.504 19.9487 18.648C20.0367 18.696 20.1487 18.736 20.2527 18.736C20.5727 18.736 20.8367 18.488 20.8367 18.168C20.8367 17.92 20.7087 17.752 20.5167 17.64C20.1807 17.44 19.7247 17.304 19.1647 17.304C17.4927 17.304 16.7087 18.632 16.7087 20.36V20.376C16.7087 21.488 16.9647 22.088 17.3727 22.496C17.7647 22.888 18.2607 23.096 18.9887 23.096ZM18.9407 22.04C18.3327 22.04 17.9647 21.68 17.9647 21.208V21.192C17.9647 20.72 18.3167 20.384 18.9247 20.384C19.5327 20.384 19.9007 20.728 19.9007 21.2V21.216C19.9007 21.696 19.5487 22.04 18.9407 22.04ZM24.4856 23.096C25.9816 23.096 26.9816 21.824 26.9816 20.2V20.184C26.9816 18.56 25.9816 17.304 24.5016 17.304C23.0136 17.304 22.0056 18.576 22.0056 20.2V20.216C22.0056 21.84 22.9896 23.096 24.4856 23.096ZM24.5016 21.984C23.7576 21.984 23.2696 21.224 23.2696 20.2V20.184C23.2696 19.16 23.7496 18.416 24.4856 18.416C25.2216 18.416 25.7176 19.184 25.7176 20.2V20.216C25.7176 21.232 25.2456 21.984 24.5016 21.984Z" fill="white"/>
<ellipse cx="19.5" cy="19.5" rx="18.5" ry="18" stroke="white" stroke-width="2"/>
<ellipse cx="19.5" cy="19" rx="10.5" ry="17.5" stroke="white"/>
<ellipse cx="19.2394" cy="20.6338" rx="18.2394" ry="9.6338" stroke="white"/>
</svg>
